<svg xmlns="http://www.w3.org/2000/svg" viewBox="0 0 400 175" role="img" aria-label="Water">
  <defs>
    <linearGradient id="wsky" x1="0" y1="0" x2="0" y2="1">
      <stop offset="0" stop-color="#cfe6f2"/>
      <stop offset="1" stop-color="#eef7fb"/>
    </linearGradient>
    <linearGradient id="wriver" x1="0" y1="0" x2="0" y2="1">
      <stop offset="0" stop-color="#5aa3c9"/>
      <stop offset="1" stop-color="#2c5f7c"/>
    </linearGradient>
  </defs>
  <rect width="400" height="175" fill="url(#wsky)"/>
  <circle cx="52" cy="36" r="16" fill="#fde9b8"/>
  <!-- far ridge -->
  <path d="M0 96 L60 52 L110 88 L170 44 L230 92 L300 50 L360 90 L400 66 L400 120 L0 120 Z" fill="#a8c6da"/>
  <!-- mid ridge -->
  <path d="M0 122 L80 62 L140 108 L205 58 L275 118 L340 70 L400 116 L400 140 L0 140 Z" fill="#7da7c4"/>
  <path d="M205 58 L216 70 L209 66 L205 73 L199 67 L193 70 Z" fill="#ffffff"/>
  <path d="M80 62 L89 72 L83 69 L80 75 L75 70 L70 72 Z" fill="#ffffff"/>
  <!-- mist -->
  <rect x="0" y="104" width="400" height="14" fill="#ffffff" opacity="0.35"/>
  <!-- front ridge -->
  <path d="M0 175 L0 128 L70 96 L150 132 L235 100 L320 138 L400 112 L400 175 Z" fill="#2c5f7c"/>
  <!-- meandering river -->
  <path d="M226 104 Q200 122 236 132 Q280 144 218 152 Q170 158 208 166 Q226 170 218 175 L300 175 Q270 166 300 158 Q344 148 268 138 Q222 130 254 118 Q268 112 252 104 Z" fill="url(#wriver)"/>
  <path d="M243 122 q10 -4 20 1" stroke="#cfe6f2" stroke-width="2" fill="none" stroke-linecap="round" opacity="0.8"/>
  <path d="M238 150 q12 -4 22 0" stroke="#cfe6f2" stroke-width="2" fill="none" stroke-linecap="round" opacity="0.6"/>
  <path d="M252 165 q10 -4 20 1" stroke="#cfe6f2" stroke-width="2" fill="none" stroke-linecap="round" opacity="0.7"/>
</svg>
